<?xml version="1.0" encoding="UTF-8" standalone="no"?>
<svg
   xmlns:dc="http://purl.org/dc/elements/1.1/"
   xmlns:cc="http://creativecommons.org/ns#"
   xmlns:rdf="http://www.w3.org/1999/02/22-rdf-syntax-ns#"
   xmlns:svg="http://www.w3.org/2000/svg"
   xmlns="http://www.w3.org/2000/svg"
   version="1.1"
   id="svg3459"
   viewBox="0 0 1052.3622 1488.189"
   height="420mm"
   width="297mm">
  <defs
     id="defs3461">
    <radialGradient
       id="radialGradient3661"
       gradientUnits="userSpaceOnUse"
       cy="29.149"
       cx="282.64999"
       gradientTransform="matrix(0.14777,0.23089,-0.2468,0.15795,-26.318,-62.617)"
       r="19.570999">
      <stop
         stop-color="#71b2f8"
         offset="0"
         id="stop7" />
      <stop
         stop-color="#002795"
         offset="1"
         id="stop9" />
    </radialGradient>
    <radialGradient
       id="radialGradient3817"
       gradientUnits="userSpaceOnUse"
       cy="33.900002"
       cx="270.57999"
       gradientTransform="matrix(0.26631,0.065024,-0.17931,0.73438,-60.668,-36.938)"
       r="19.570999">
      <stop
         stop-color="#ff6d0f"
         offset="0"
         id="stop12" />
      <stop
         stop-color="#ff1000"
         offset="1"
         id="stop14" />
    </radialGradient>
  </defs>
  <metadata
     id="metadata3464">
    <rdf:RDF>
      <cc:Work
         rdf:about="">
        <dc:format>image/svg+xml</dc:format>
        <dc:type
           rdf:resource="http://purl.org/dc/dcmitype/StillImage" />
        <dc:title></dc:title>
      </cc:Work>
    </rdf:RDF>
  </metadata>
  <g
     transform="translate(0,435.82677)"
     id="layer1">
    <g
       style="fill:none;stroke:#000000;stroke-width:0.34999999;stroke-linecap:butt;stroke-linejoin:miter"
       id="g22"
       transform="matrix(0,-3.5433071,-3.5433071,0,623.62205,308.26772)">
      <path
         d="m -193,170 386,0"
         id="1" />
      <path
         d="m -193,-115 0,285"
         id="2" />
      <path
         d="m 193,170 0,-285"
         id="3" />
      <path
         d="m 193,-115 -386,0"
         id="4" />
      <path
         d="m 185.5,124 0,-8"
         id="5" />
      <path
         d="m 180.5,124 5,0"
         id="6" />
      <path
         d="m 185.5,116 -5,0"
         id="7" />
      <path
         d="m 180.5,116 0,8"
         id="8" />
      <circle
         id="circle32"
         r="1.7"
         cy="101"
         cx="155" />
      <circle
         id="circle34"
         r="1.25"
         cy="85"
         cx="127" />
      <circle
         id="circle36"
         r="5.0999999"
         cy="85"
         cx="155" />
      <path
         d="m 185.5,31.5 0,-8"
         id="12" />
      <path
         d="m 180.5,31.5 5,0"
         id="13" />
      <path
         d="m 185.5,23.5 -5,0"
         id="14" />
      <path
         d="m 180.5,23.5 0,8"
         id="15" />
      <circle
         id="circle42"
         r="1.7"
         cy="69"
         cx="155" />
      <circle
         id="circle44"
         r="1.25"
         cy="60"
         cx="127" />
      <circle
         id="circle46"
         r="1.6"
         cy="107"
         cx="120.5" />
      <circle
         id="circle48"
         r="1.25"
         cy="10"
         cx="127" />
      <circle
         id="circle50"
         r="12"
         cy="122.5"
         cx="105" />
      <circle
         id="circle52"
         r="1.6"
         cy="107"
         cx="89.5" />
      <circle
         id="circle54"
         r="1.25"
         cy="10"
         cx="-127" />
      <circle
         id="circle56"
         r="1.25"
         cy="35"
         cx="-127" />
      <circle
         id="circle58"
         r="1.6"
         cy="107"
         cx="-120.5" />
      <circle
         id="circle60"
         r="1.25"
         cy="85"
         cx="-127" />
      <circle
         id="circle62"
         r="1.25"
         cy="60"
         cx="-127" />
      <circle
         id="circle64"
         r="1.6"
         cy="107"
         cx="-89.5" />
      <circle
         id="circle66"
         r="12"
         cy="122.5"
         cx="-105" />
      <circle
         id="circle68"
         r="1.25"
         cy="-40"
         cx="-127" />
      <circle
         id="circle70"
         r="1.25"
         cy="-40"
         cx="127" />
      <circle
         id="circle72"
         r="1.25"
         cy="-15"
         cx="-127" />
      <circle
         id="circle74"
         r="1.25"
         cy="-15"
         cx="127" />
      <circle
         id="circle76"
         r="1.7"
         cy="-8.5"
         cx="155" />
      <circle
         id="circle78"
         r="1.25"
         cy="-80"
         cx="105" />
      <path
         d="m -115,65 230,0"
         id="35" />
      <path
         d="m -115,-65 0,130"
         id="36" />
      <path
         d="m 115,65 0,-130"
         id="37" />
      <path
         d="m 115,-65 -230,0"
         id="38" />
      <circle
         id="circle84"
         r="1.25"
         cy="-65"
         cx="127" />
      <circle
         id="circle86"
         r="1.25"
         cy="35"
         cx="127" />
      <circle
         id="circle88"
         r="5.0999999"
         cy="-65"
         cx="155" />
      <circle
         id="circle90"
         r="1.7"
         cy="-81"
         cx="155" />
      <circle
         id="circle92"
         r="1.7"
         cy="-49"
         cx="155" />
      <circle
         id="circle94"
         r="5"
         cy="10"
         cx="155" />
      <circle
         id="circle96"
         r="1.7"
         cy="28.5"
         cx="155" />
      <circle
         id="circle98"
         r="1.25"
         cy="-80"
         cx="-105" />
      <path
         d="m 185.5,-61 0,-8"
         id="47" />
      <path
         d="m 180.5,-61 5,0"
         id="48" />
      <path
         d="m 185.5,-69 -5,0"
         id="49" />
      <path
         d="m 180.5,-69 0,8"
         id="50" />
      <circle
         id="circle104"
         r="1.25"
         cy="-65"
         cx="-127" />
      <circle
         id="circle106"
         r="1.7"
         cy="-49"
         cx="-155" />
      <circle
         id="circle108"
         r="5"
         cy="10"
         cx="-155" />
      <circle
         id="circle110"
         r="1.7"
         cy="-8.5"
         cx="-155" />
      <circle
         id="circle112"
         r="1.7"
         cy="69"
         cx="-155" />
      <circle
         id="circle114"
         r="1.7"
         cy="28.5"
         cx="-155" />
      <circle
         id="circle116"
         r="5.0999999"
         cy="-65"
         cx="-155" />
      <circle
         id="circle118"
         r="5.0999999"
         cy="85"
         cx="-155" />
      <circle
         id="circle120"
         r="1.7"
         cy="-81"
         cx="-155" />
      <circle
         id="circle122"
         r="1.7"
         cy="101"
         cx="-155" />
      <circle
         id="circle124"
         r="1.6"
         cy="138"
         cx="-89.5" />
      <circle
         id="circle126"
         r="1.6"
         cy="138"
         cx="89.5" />
      <circle
         id="circle128"
         r="1.6"
         cy="138"
         cx="120.5" />
      <circle
         id="circle130"
         r="1.6"
         cy="138"
         cx="-120.5" />
      <path
         d="m -139,157.5 -8,0"
         id="65" />
      <path
         d="m -139,162.5 0,-5"
         id="66" />
      <path
         d="m -147,157.5 0,5"
         id="67" />
      <path
         d="m -147,162.5 8,0"
         id="68" />
      <path
         d="m -75.5,162.5 8,0"
         id="69" />
      <path
         d="m -75.5,157.5 0,5"
         id="70" />
      <path
         d="m -67.5,157.5 -8,0"
         id="71" />
      <path
         d="m -67.5,162.5 0,-5"
         id="72" />
      <path
         d="m 4,157.5 -8,0"
         id="73" />
      <path
         d="m 4,162.5 0,-5"
         id="74" />
      <path
         d="m -4,162.5 8,0"
         id="75" />
      <path
         d="m -4,157.5 0,5"
         id="76" />
      <path
         d="m 139,162.5 8,0"
         id="77" />
      <path
         d="m 139,157.5 0,5"
         id="78" />
      <path
         d="m 147,157.5 -8,0"
         id="79" />
      <path
         d="m 147,162.5 0,-5"
         id="80" />
      <path
         d="m 67.5,157.5 0,5"
         id="81" />
      <path
         d="m 75.5,157.5 -8,0"
         id="82" />
      <path
         d="m 75.5,162.5 0,-5"
         id="83" />
      <path
         d="m 67.5,162.5 8,0"
         id="84" />
      <circle
         id="circle152"
         r="3.0999999"
         cy="160"
         cx="183" />
      <path
         d="m -4,-107.5 0,5"
         id="86" />
      <path
         d="m 4,-107.5 -8,0"
         id="87" />
      <path
         d="m 4,-102.5 0,-5"
         id="88" />
      <path
         d="m -4,-102.5 8,0"
         id="89" />
      <path
         d="m 75.5,-102.5 0,-5"
         id="90" />
      <path
         d="m 67.5,-102.5 8,0"
         id="91" />
      <path
         d="m 67.5,-107.5 0,5"
         id="92" />
      <path
         d="m 75.5,-107.5 -8,0"
         id="93" />
      <path
         d="m 139,-102.5 8,0"
         id="94" />
      <path
         d="m 139,-107.5 0,5"
         id="95" />
      <path
         d="m 147,-107.5 -8,0"
         id="96" />
      <path
         d="m 147,-102.5 0,-5"
         id="97" />
      <path
         d="m -147,-107.5 0,5"
         id="98" />
      <path
         d="m -139,-107.5 -8,0"
         id="99" />
      <path
         d="m -147,-102.5 8,0"
         id="100" />
      <path
         d="m -139,-102.5 0,-5"
         id="101" />
      <path
         d="m -75.5,-102.5 8,0"
         id="102" />
      <path
         d="m -75.5,-107.5 0,5"
         id="103" />
      <path
         d="m -67.5,-107.5 -8,0"
         id="104" />
      <path
         d="m -67.5,-102.5 0,-5"
         id="105" />
      <circle
         id="circle174"
         r="3.0999999"
         cy="-105"
         cx="183" />
      <path
         d="m -180.5,-69 -5,0"
         id="107" />
      <path
         d="m -180.5,-61 0,-8"
         id="108" />
      <path
         d="m -185.5,-69 0,8"
         id="109" />
      <path
         d="m -185.5,-61 5,0"
         id="110" />
      <path
         d="m -185.5,124 5,0"
         id="111" />
      <path
         d="m -185.5,116 0,8"
         id="112" />
      <path
         d="m -180.5,124 0,-8"
         id="113" />
      <path
         d="m -180.5,116 -5,0"
         id="114" />
      <path
         d="m -185.5,31.5 5,0"
         id="115" />
      <path
         d="m -185.5,23.5 0,8"
         id="116" />
      <path
         d="m -180.5,31.5 0,-8"
         id="117" />
      <path
         d="m -180.5,23.5 -5,0"
         id="118" />
      <circle
         id="circle188"
         r="3.0999999"
         cy="160"
         cx="-183" />
      <circle
         id="circle190"
         r="3.0999999"
         cy="-105"
         cx="-183" />
    </g>
  </g>
</svg>
